<?xml version="1.0" encoding="utf-8"?>
<!-- Generator: Adobe Illustrator 16.0.3, SVG Export Plug-In . SVG Version: 6.00 Build 0)  -->
<!DOCTYPE svg PUBLIC "-//W3C//DTD SVG 1.1//EN" "http://www.w3.org/Graphics/SVG/1.1/DTD/svg11.dtd">
<svg version="1.1" id="Layer_1" xmlns="http://www.w3.org/2000/svg" xmlns:xlink="http://www.w3.org/1999/xlink" x="0px" y="0px"
	 width="320px" height="480px" viewBox="0 0 320 480" enable-background="new 0 0 320 480" xml:space="preserve">
<rect x="-7" y="-5" fill="#FF0000" width="333" height="491"/>
<g>
	<g>
		<g>
			<path fill="#FFFFFF" d="M135.384,266.7l-14.718-0.009l-0.032-38.572l-12.693-0.008l0.029-14.729h53.997l-0.217,38.566h8.915
				l0.378,0.893c1.5,3.452,3.525,6.572,5.416,8.334l0.468,0.41v5.101h-29.714l0.026-38.564h-11.838L135.384,266.7z M122.802,264.556
				l10.445,0.006l0.018-38.579h16.113l-0.026,38.564h25.438v-2.013c-2.712-2.642-4.664-6.521-5.533-8.45h-9.655l0.216-38.565
				h-49.713l-0.021,10.456l12.688,0.008L122.802,264.556z"/>
		</g>
	</g>
	<g>
		<g>
			<path fill="#FFFFFF" d="M103.759,266.65H89.022v-53.303h14.736V266.65z M91.16,264.514h10.462v-49.029H91.16V264.514z"/>
		</g>
	</g>
	<g>
		<path fill="#FFFFFF" d="M199.706,266.335c-8.595,0-15.458-3.36-19.848-9.718c-4.56-6.603-5.052-14.094-5.052-17.008
			c0-2.871,0.493-10.251,5.057-16.754c4.39-6.255,11.251-9.561,19.843-9.561c8.681,0,15.613,3.304,20.049,9.557
			c4.614,6.503,5.112,13.886,5.112,16.758C224.867,259.336,211.313,266.335,199.706,266.335z M199.706,215.432
			c-17.968,0-22.762,15.197-22.762,24.178c0,9.133,4.794,24.589,22.762,24.589c16.994,0,23.023-13.246,23.023-24.589
			C222.729,230.629,217.881,215.432,199.706,215.432z M207.051,254.14h-15.154l2.812-12.823c-2.467-1.821-3.929-4.317-3.929-6.74
			c0-4.734,3.875-8.586,8.638-8.586c4.764,0,8.639,3.852,8.639,8.586c0,2.795-1.917,5.259-3.818,6.728L207.051,254.14z
			 M194.554,252.002h9.841l-2.545-11.608l0.826-0.591c1.567-1.123,3.242-3.084,3.242-5.226c0-3.556-2.916-6.448-6.501-6.448
			c-3.584,0-6.501,2.893-6.501,6.448c0,1.826,1.246,3.775,3.332,5.215l0.853,0.59L194.554,252.002z"/>
	</g>
	<g>
		<path fill="#FFFFFF" d="M274.29,266.616h-17.382l-8.906-14.18l-8.905,14.18h-17.382l16.741-26.641l-16.725-26.615h17.382
			l8.906,14.18l8.905-14.18h17.382l-16.741,26.642L274.29,266.616z M258.089,264.479h12.334l-15.382-24.477l15.398-24.504h-12.334
			l-10.086,16.062l-10.087-16.062h-12.334l15.382,24.478l-15.398,24.503h12.334l10.086-16.061L258.089,264.479z"/>
	</g>
	<g>
		<path fill="#FFFFFF" d="M72.394,272.952H57.657l0.007-6.27l-10.765,0.001c-0.664,0-1.206-0.541-1.206-1.205v-50.936
			c0-0.665,0.542-1.206,1.206-1.206h10.762l-0.024-6.289h14.737l0.024,7.003c7.896,1.766,12.229,7.174,12.229,15.312
			c0,3.074-2.222,8.417-5.84,10.136l-0.321,0.157l0.364,0.162c3.866,1.64,5.962,6.59,5.962,10.412
			c0,6.136-3.275,13.367-12.392,15.661L72.394,272.952z M59.796,270.814h10.462l0.008-6.643l0.849-0.178
			c8.509-1.785,11.541-8.28,11.541-13.765c0-3.179-1.749-7.21-4.677-8.452l-4.572-2.033l4.454-2.171
			c2.787-1.324,4.63-5.817,4.63-8.21c0-7.496-3.819-12-11.351-13.387l-0.872-0.161l-0.023-6.63H59.782l0.024,6.344l-1.403-0.056
			l-10.572,0.001v49.073l10.856-0.012l1.116-0.049L59.796,270.814z M66.399,255.27h-8.748v-11.047h9.002
			c4.209,0.119,5.697,3.043,5.697,5.738C72.351,252.014,70.734,255.27,66.399,255.27z M59.789,253.133h6.61
			c3.771,0,3.813-3.14,3.813-3.172c0-1.307-0.466-3.512-3.59-3.601h-6.834V253.133z M58.721,235.797h-1.069v-11.15h8.748
			c4.882,0,5.951,3.674,5.951,5.089c0,2.852-1.486,5.941-5.659,6.061L58.721,235.797z M59.789,233.66h6.871
			c3.088-0.089,3.553-2.497,3.553-3.924c-0.01-0.282-0.201-2.952-3.813-2.952h-6.61V233.66z"/>
	</g>
</g>
</svg>
