<?xml version="1.0" encoding="utf-8"?>
<!-- Generator: Adobe Illustrator 16.0.3, SVG Export Plug-In . SVG Version: 6.00 Build 0)  -->
<!DOCTYPE svg PUBLIC "-//W3C//DTD SVG 1.1//EN" "http://www.w3.org/Graphics/SVG/1.1/DTD/svg11.dtd">
<svg version="1.1" id="Layer_1" xmlns="http://www.w3.org/2000/svg" xmlns:xlink="http://www.w3.org/1999/xlink" x="0px" y="0px"
	 width="566.617px" height="189.58px" viewBox="-119.803 0 566.617 189.58" enable-background="new -119.803 0 566.617 189.58"
	 xml:space="preserve">
<rect x="-119.803" fill="#C80010" width="568.561" height="189.58"/>
<g>
	<g>
		<g>
			<path fill="#FFFFFF" d="M102.493,160.966l-36.477-0.021l-0.08-95.602l-31.46-0.021l0.073-36.507h133.83l-0.535,95.584h22.094
				l0.937,2.213c3.717,8.558,8.739,16.288,13.424,20.657l1.158,1.016v12.642h-73.644l0.066-95.583h-29.341L102.493,160.966z
				 M71.309,155.65l25.89,0.016l0.044-95.618h39.936l-0.066,95.582h63.047v-4.989c-6.72-6.548-11.562-16.162-13.714-20.943h-23.93
				l0.536-95.584H39.836l-0.052,25.916l31.444,0.021L71.309,155.65z"/>
		</g>
	</g>
	<g>
		<g>
			<path fill="#FFFFFF" d="M24.112,160.843h-36.524V28.731h36.524V160.843z M-7.114,155.546h25.93V34.029h-25.93V155.546z"/>
		</g>
	</g>
	<g>
		<path fill="#FFFFFF" d="M261.918,160.062c-21.303,0-38.314-8.329-49.193-24.086c-11.301-16.366-12.521-34.933-12.521-42.155
			c0-7.115,1.221-25.406,12.532-41.524C223.616,36.794,240.623,28.6,261.918,28.6c21.515,0,38.696,8.19,49.689,23.688
			c11.435,16.119,12.671,34.416,12.671,41.534C324.278,142.714,290.685,160.062,261.918,160.062z M261.918,33.897
			c-44.535,0-56.418,37.667-56.418,59.924c0,22.636,11.883,60.943,56.418,60.943c42.118,0,57.063-32.829,57.063-60.943
			C318.981,71.564,306.962,33.897,261.918,33.897z M280.121,129.835h-37.561l6.968-31.78c-6.114-4.515-9.738-10.702-9.738-16.708
			c0-11.734,9.606-21.279,21.411-21.279s21.408,9.545,21.408,21.279c0,6.929-4.748,13.035-9.464,16.675L280.121,129.835z
			 M249.146,124.537h24.391l-6.306-28.771l2.046-1.466c3.885-2.782,8.036-7.645,8.036-12.953c0-8.812-7.227-15.982-16.111-15.982
			s-16.114,7.169-16.114,15.982c0,4.525,3.089,9.356,8.259,12.926l2.113,1.463L249.146,124.537z"/>
	</g>
	<g>
		<path fill="#FFFFFF" d="M446.773,160.758h-43.084l-22.07-35.143l-22.073,35.143h-43.081l41.493-66.03l-41.452-65.965h43.081
			l22.073,35.145l22.071-35.145h43.083l-41.495,66.031L446.773,160.758z M406.618,155.461h30.569l-38.125-60.667l38.167-60.734
			h-30.57L381.66,73.868L356.659,34.06h-30.567l38.123,60.668l-38.164,60.733h30.567l25.001-39.807L406.618,155.461z"/>
	</g>
	<g>
		<path fill="#FFFFFF" d="M-53.628,176.462h-36.524l0.018-15.538l-26.68,0.002c-1.647,0-2.989-1.341-2.989-2.988V31.694
			c0-1.647,1.341-2.988,2.989-2.988h26.672l-0.06-15.588h36.525l0.061,17.358c19.569,4.378,30.309,17.78,30.309,37.95
			c0,7.62-5.507,20.863-14.476,25.123l-0.796,0.388l0.904,0.402c9.583,4.064,14.777,16.335,14.777,25.806
			c0,15.207-8.119,33.131-30.712,38.814L-53.628,176.462z M-84.85,171.165h25.93l0.018-16.465l2.103-0.441
			c21.089-4.424,28.604-20.522,28.604-34.114c0-7.88-4.335-17.87-11.59-20.948l-11.333-5.04l11.04-5.381
			c6.907-3.281,11.475-14.417,11.475-20.349c0-18.579-9.465-29.743-28.132-33.18l-2.161-0.398l-0.058-16.432h-25.929l0.06,15.723
			L-88.303,34l-26.203,0.002v121.626l26.908-0.028l2.766-0.12L-84.85,171.165z M-68.485,132.636h-21.68v-27.378h22.31
			c10.432,0.295,14.121,7.54,14.121,14.221C-53.734,124.566-57.739,132.636-68.485,132.636z M-84.868,127.339h16.383
			c9.345,0,9.454-7.781,9.454-7.86c0-3.238-1.156-8.705-8.899-8.925l-16.938,0.001V127.339z M-87.517,84.374h-2.648V56.737h21.68
			c12.101,0,14.751,9.106,14.751,12.614c0,7.068-3.685,14.725-14.027,15.021L-87.517,84.374z M-84.868,79.077h17.031
			c7.652-0.221,8.806-6.188,8.806-9.726c-0.024-0.698-0.5-7.317-9.454-7.317h-16.383V79.077z"/>
	</g>
</g>
</svg>
